<?xml version="1.0" standalone="no"?>
<!DOCTYPE svg PUBLIC "-//W3C//DTD SVG 20010904//EN"
 "http://www.w3.org/TR/2001/REC-SVG-20010904/DTD/svg10.dtd">
<svg version="1.0" xmlns="http://www.w3.org/2000/svg"
 width="540.000000pt" height="540.000000pt" viewBox="0 0 540.000000 540.000000"
 preserveAspectRatio="xMidYMid meet">

<g transform="translate(0.000000,540.000000) scale(0.100000,-0.100000)"
fill="#000000" stroke="none">
<path d="M2653 4610 c-34 -8 -62 -25 -76 -47 -4 -7 -16 -13 -27 -13 -10 0 -33
-12 -50 -26 -28 -24 -31 -32 -28 -73 3 -48 21 -60 26 -17 5 39 47 66 102 66
57 0 88 24 49 38 l-23 9 21 12 c32 16 64 14 101 -9 35 -22 52 -54 52 -101 0
-35 17 -72 30 -64 5 3 12 25 15 48 17 112 -81 202 -192 177z"/>
<path d="M2525 4380 c-16 -31 -66 -60 -103 -60 -30 0 -162 -44 -222 -75 -191
-96 -361 -289 -422 -478 -19 -59 -20 -69 -8 -81 16 -15 129 -50 137 -43 2 3
11 31 19 64 21 82 95 228 152 298 94 118 236 219 372 265 95 33 146 96 106
129 -12 10 -18 7 -31 -19z"/>
<path d="M2800 4352 c0 -22 50 -55 130 -85 256 -97 445 -303 516 -564 9 -35
21 -63 26 -63 20 0 114 34 127 46 19 18 8 65 -38 161 -49 101 -84 150 -169
236 -106 108 -242 188 -379 221 -154 39 -179 45 -195 51 -10 4 -18 3 -18 -3z"/>
<path d="M2575 4287 c-159 -44 -307 -130 -417 -244 -99 -102 -179 -252 -194
-362 -6 -47 -6 -48 23 -54 17 -3 63 -9 104 -13 l74 -6 20 78 c44 177 120 311
254 443 58 58 189 148 229 158 78 19 315 -178 416 -346 51 -84 115 -254 116
-305 l0 -29 77 7 c42 4 89 10 106 13 29 6 29 6 22 57 -3 28 -10 55 -16 61 -5
5 -9 15 -9 22 0 24 -63 147 -101 198 -105 140 -252 247 -412 299 -159 52 -178
54 -292 23z"/>
<path d="M2622 4198 c-67 -90 -126 -202 -166 -313 -28 -79 -56 -211 -56 -261
l0 -34 95 0 c80 0 96 -3 103 -17 5 -10 12 -94 16 -188 9 -214 25 -386 38 -402
16 -20 66 -16 72 5 8 30 46 507 46 595 0 4 45 7 99 7 55 0 102 4 105 8 6 10
-20 162 -41 231 -38 133 -137 322 -216 414 l-32 39 -63 -84z"/>
<path d="M3681 2654 c-123 -33 -252 -137 -305 -247 -83 -170 -45 -400 87 -529
90 -89 242 -148 376 -148 71 0 201 28 268 57 l41 18 -31 83 c-25 64 -35 81
-47 76 -113 -51 -196 -63 -292 -43 -97 21 -158 68 -202 156 -34 69 -37 186 -6
256 46 104 160 164 296 155 61 -4 83 -11 134 -41 34 -21 64 -37 68 -37 7 1 94
142 96 157 2 13 -92 61 -163 83 -77 24 -237 26 -320 4z"/>
<path d="M1220 2653 c-1 -9 0 -880 0 -900 0 -10 27 -13 100 -13 l100 0 0 284
c0 157 4 287 9 290 5 3 42 -33 82 -82 41 -48 116 -136 168 -197 51 -60 103
-121 115 -135 11 -14 47 -56 80 -93 l58 -68 92 3 91 3 0 455 0 455 -102 3
-103 3 0 -270 c0 -148 -4 -272 -9 -275 -7 -5 -132 133 -274 303 -22 25 -51 60
-65 76 -15 17 -53 60 -86 98 l-58 67 -99 0 c-55 0 -99 -3 -99 -7z"/>
<path d="M2342 2203 l3 -458 200 -3 c274 -4 372 12 472 80 78 52 112 100 177
247 19 42 13 229 -9 286 -51 131 -110 202 -208 250 -100 49 -147 55 -408 55
l-229 0 2 -457z m509 248 c80 -42 131 -126 137 -228 8 -114 -39 -209 -127
-261 -43 -25 -56 -27 -178 -30 l-133 -4 0 269 c0 148 3 273 8 277 4 5 62 6
128 4 101 -4 129 -9 165 -27z"/>
<path d="M2136 1268 c-17 -26 -76 -173 -76 -189 0 -21 45 -4 48 19 3 19 9 22
46 22 35 0 45 -4 56 -25 13 -23 50 -36 50 -16 0 9 -22 65 -46 118 -8 17 -14
37 -14 45 -1 18 -25 48 -38 48 -7 0 -18 -10 -26 -22z m38 -75 c8 -21 -10 -41
-24 -27 -11 11 -3 44 10 44 4 0 11 -8 14 -17z"/>
<path d="M2685 1276 c-74 -32 -87 -126 -27 -186 11 -10 36 -15 80 -15 57 0 66
3 88 28 51 60 22 155 -54 177 -46 12 -50 12 -87 -4z m79 -37 c34 -16 52 -60
35 -91 -16 -31 -28 -38 -64 -38 -40 0 -54 10 -64 46 -10 37 -1 63 30 80 30 17
32 17 63 3z"/>
<path d="M3256 1268 c-17 -27 -76 -171 -76 -187 0 -21 37 -11 48 14 10 21 19
25 52 25 34 0 42 -4 50 -25 10 -25 50 -36 50 -14 0 15 -70 180 -83 197 -14 18
-25 15 -41 -10z m38 -74 c8 -20 -1 -34 -20 -34 -8 0 -14 8 -14 18 0 33 23 44
34 16z"/>
<path d="M1792 1178 c3 -95 4 -103 23 -103 17 0 21 8 25 64 l5 65 54 -67 c39
-48 61 -67 78 -67 23 0 23 2 23 105 0 98 -1 105 -20 105 -18 0 -20 -7 -20 -54
0 -30 -4 -57 -9 -61 -5 -3 -33 22 -62 55 -36 42 -59 60 -76 60 -24 0 -24 0
-21 -102z"/>
<path d="M2275 1270 c-10 -16 5 -28 40 -32 l30 -3 3 -83 c2 -72 5 -83 20 -80
14 3 17 17 20 85 l3 82 32 3 c20 2 32 8 32 18 0 12 -18 16 -87 18 -56 2 -89
-1 -93 -8z"/>
<path d="M2510 1174 c0 -104 0 -105 23 -102 21 3 22 8 25 106 l3 102 -26 0
-25 0 0 -106z"/>
<path d="M2912 1178 c3 -95 4 -103 23 -103 17 0 20 8 23 58 2 31 7 57 12 57 5
0 30 -27 55 -60 34 -44 53 -60 71 -60 24 0 24 0 24 106 0 104 0 105 -22 102
-20 -3 -23 -10 -26 -60 -2 -32 -6 -58 -10 -57 -4 0 -29 27 -55 60 -36 43 -55
59 -73 59 l-25 0 3 -102z"/>
<path d="M3440 1175 l0 -106 73 3 c56 2 72 6 72 18 0 11 -13 16 -47 18 l-48 3
0 85 c0 83 0 84 -25 84 l-25 0 0 -105z"/>
<path d="M1539 878 c-1 -29 -2 -75 -2 -103 l1 -50 66 -3 c62 -3 69 -1 96 27
35 34 39 74 14 126 -18 39 -55 55 -125 55 l-49 0 -1 -52z m119 -4 c19 -13 22
-24 20 -57 -3 -39 -6 -43 -41 -55 -22 -6 -43 -10 -48 -6 -5 3 -9 34 -9 70 0
63 0 64 28 64 15 0 38 -7 50 -16z"/>
<path d="M1804 917 c-3 -8 -4 -54 -2 -103 l3 -89 68 -3 c53 -2 68 0 65 10 -3
7 -24 15 -49 18 -35 4 -44 9 -44 25 0 14 9 21 33 26 18 4 36 9 39 13 12 12
-20 36 -49 36 -23 0 -29 4 -26 18 2 12 15 18 46 20 34 3 42 7 42 23 0 17 -7
19 -60 19 -41 0 -62 -4 -66 -13z"/>
<path d="M2010 825 c0 -98 1 -105 20 -105 17 0 20 7 20 39 0 57 16 59 40 6 28
-61 54 -61 81 0 28 63 39 65 39 5 0 -48 2 -51 23 -48 21 3 22 7 22 103 0 99 0
100 -25 103 -22 3 -29 -5 -58 -63 -17 -36 -36 -65 -41 -65 -5 0 -23 29 -40 65
-25 55 -34 65 -55 65 l-26 0 0 -105z"/>
<path d="M2355 897 c-28 -28 -35 -43 -35 -75 0 -99 124 -146 203 -77 24 20 29
32 30 74 3 70 -29 102 -107 109 -53 4 -57 3 -91 -31z m135 -29 c11 -12 20 -32
20 -45 0 -29 -42 -73 -68 -73 -33 0 -72 38 -72 71 0 62 78 92 120 47z"/>
<path d="M2674 920 c-93 -37 -78 -181 22 -206 13 -3 40 -3 59 0 26 5 35 12 35
27 0 18 -4 20 -42 14 -51 -7 -74 6 -87 52 -8 27 -6 37 11 59 19 24 26 26 68
20 37 -5 49 -3 53 9 12 29 -67 46 -119 25z"/>
<path d="M2865 918 c-3 -8 -5 -55 -3 -104 3 -84 4 -89 26 -92 19 -3 22 1 22
33 0 44 16 43 45 -3 12 -19 28 -31 43 -32 27 0 27 4 2 45 -18 30 -19 35 -5 48
27 27 29 70 6 91 -28 25 -128 35 -136 14z m100 -53 c0 -14 -8 -21 -27 -23 -22
-3 -28 1 -28 16 0 25 10 33 35 30 12 -2 20 -10 20 -23z"/>
<path d="M3112 828 c-35 -88 -39 -104 -25 -107 9 -2 25 8 36 23 26 36 82 37
99 1 7 -17 19 -25 35 -25 14 0 23 4 21 8 -1 4 -21 52 -42 105 -33 82 -42 97
-61 97 -19 0 -28 -16 -63 -102z m78 7 c0 -16 -6 -25 -15 -25 -15 0 -21 31 -8
43 13 14 23 6 23 -18z"/>
<path d="M3295 920 c-10 -17 4 -30 35 -30 35 0 40 -13 40 -101 0 -62 2 -69 20
-69 17 0 19 8 22 82 l3 83 30 5 c18 3 30 11 30 20 0 12 -18 16 -87 18 -52 2
-89 -1 -93 -8z"/>
<path d="M3540 824 c0 -104 0 -105 23 -102 20 3 22 9 25 83 4 99 -2 125 -28
125 -19 0 -20 -7 -20 -106z"/>
<path d="M3704 911 c-94 -57 -42 -201 73 -201 35 0 69 22 59 39 -5 7 -21 9
-44 5 -75 -12 -120 62 -71 115 19 20 29 22 65 17 49 -6 68 9 39 31 -27 19 -85
16 -121 -6z"/>
<path d="M1830 569 c-67 -28 -94 -91 -65 -152 9 -19 27 -39 41 -46 31 -14 124
-15 124 -1 0 6 0 13 0 18 0 4 -21 7 -46 7 -53 1 -84 28 -84 75 0 42 31 64 84
58 31 -4 46 -2 50 8 11 29 -59 52 -104 33z"/>
<path d="M2043 559 c-105 -52 -65 -199 54 -199 88 0 138 61 114 139 -21 68
-97 95 -168 60z m110 -51 c21 -25 22 -57 1 -86 -21 -31 -87 -31 -108 0 -54 76
46 156 107 86z"/>
<path d="M2633 569 c-17 -5 -43 -23 -57 -40 -72 -85 15 -190 140 -170 38 6 39
7 42 54 3 46 2 48 -20 45 -17 -2 -24 -11 -26 -31 -4 -35 -23 -43 -63 -27 -33
14 -49 37 -49 73 0 46 57 72 118 53 16 -5 24 -3 28 9 4 9 3 20 -2 25 -15 14
-77 19 -111 9z"/>
<path d="M3313 565 c-28 -12 -33 -19 -33 -49 0 -31 5 -38 45 -62 25 -14 45
-32 45 -39 0 -19 -28 -27 -52 -14 -23 13 -48 5 -48 -15 0 -18 22 -26 76 -26
35 0 47 5 60 25 25 38 11 68 -41 96 -25 13 -45 29 -45 36 0 16 30 21 59 11 17
-6 27 -5 33 4 15 24 11 28 -52 43 -8 2 -30 -2 -47 -10z"/>
<path d="M3520 567 c-13 -7 -29 -24 -34 -39 -12 -33 2 -51 56 -79 61 -31 41
-69 -25 -45 -22 9 -30 8 -37 -4 -15 -24 18 -41 75 -38 40 2 52 7 61 26 18 36
6 62 -42 91 -57 34 -58 54 -2 49 34 -2 43 1 46 15 2 11 -6 20 -23 27 -34 13
-45 12 -75 -3z"/>
<path d="M2290 465 c0 -98 1 -105 20 -105 18 0 20 7 20 58 0 32 3 61 6 64 3 4
29 -21 58 -55 29 -34 62 -63 74 -65 21 -3 22 -1 22 102 0 99 -1 106 -20 106
-17 0 -20 -7 -20 -52 0 -29 -5 -60 -10 -68 -5 -8 -10 -10 -10 -4 0 20 -102
124 -121 124 -18 0 -19 -8 -19 -105z"/>
<path d="M2840 465 c0 -96 2 -105 19 -105 22 0 32 20 24 49 -9 35 23 25 47
-14 15 -24 29 -35 46 -35 29 0 30 4 3 41 -20 28 -19 69 2 69 5 0 9 15 9 34 0
47 -29 66 -97 66 l-53 0 0 -105z m98 43 c-4 -28 -42 -37 -52 -13 -9 24 1 35
30 35 21 0 25 -4 22 -22z"/>
<path d="M3080 465 l0 -105 65 0 c58 0 65 2 65 20 0 17 -7 20 -45 20 -33 0
-45 4 -45 15 0 8 0 18 0 23 -1 4 16 9 37 12 52 7 52 34 1 38 -29 2 -38 7 -38
22 0 15 9 19 43 22 29 2 42 8 42 18 0 11 -15 16 -62 18 l-63 3 0 -106z"/>
</g>
</svg>
